<svg width="45" height="45" viewBox="0 0 45 45" fill="none" xmlns="http://www.w3.org/2000/svg">
<g opacity="0.9">
<path fill-rule="evenodd" clip-rule="evenodd" d="M22.5 1.875C11.1094 1.875 1.875 11.1094 1.875 22.5C1.875 33.8906 11.1094 43.125 22.5 43.125C33.8906 43.125 43.125 33.8906 43.125 22.5C43.125 11.1094 33.8906 1.875 22.5 1.875ZM16.3256 26.6381C15.972 26.9797 15.4984 27.1687 15.0067 27.1644C14.5151 27.1601 14.0449 26.9629 13.6972 26.6153C13.3496 26.2676 13.1524 25.7974 13.1481 25.3058C13.1438 24.8141 13.3328 24.3405 13.6744 23.9869L21.1744 16.4869C21.526 16.1354 22.0028 15.9379 22.5 15.9379C22.9972 15.9379 23.474 16.1354 23.8256 16.4869L31.3256 23.9869C31.6672 24.3405 31.8562 24.8141 31.8519 25.3058C31.8476 25.7974 31.6504 26.2676 31.3028 26.6153C30.9551 26.9629 30.4849 27.1601 29.9933 27.1644C29.5016 27.1687 29.028 26.9797 28.6744 26.6381L22.5 20.4637L16.3256 26.6381Z" fill="white" fill-opacity="0.75"/>
</g>
</svg>
