<svg width="992" height="1445" viewBox="0 0 992 1445" fill="none" xmlns="http://www.w3.org/2000/svg">
<g filter="url(#filter0_f_405_5)">
<ellipse cx="23.452" cy="22.8043" rx="23.452" ry="22.8043" transform="matrix(0.773117 0.634264 0.581862 -0.813287 478.198 569.919)" fill="white" fill-opacity="0.07"/>
<ellipse cx="23.452" cy="22.8043" rx="23.452" ry="22.8043" transform="matrix(0.773117 0.634264 0.581862 -0.813287 431.196 422.461)" fill="white" fill-opacity="0.07"/>
<ellipse cx="23.452" cy="22.8043" rx="23.452" ry="22.8043" transform="matrix(0.773117 0.634264 0.581862 -0.813287 503.291 281.471)" fill="white" fill-opacity="0.07"/>
<ellipse cx="23.452" cy="22.8043" rx="23.452" ry="22.8043" transform="matrix(0.773117 0.634264 0.581862 -0.813287 484.602 54.2256)" fill="white" fill-opacity="0.07"/>
<ellipse cx="23.452" cy="22.8043" rx="23.452" ry="22.8043" transform="matrix(0.773117 0.634264 0.581862 -0.813287 415.601 150.667)" fill="white" fill-opacity="0.07"/>
<ellipse cx="23.452" cy="22.8043" rx="23.452" ry="22.8043" transform="matrix(0.773117 0.634264 0.581862 -0.813287 444.133 697.965)" fill="white" fill-opacity="0.07"/>
<ellipse cx="23.452" cy="22.8043" rx="23.452" ry="22.8043" transform="matrix(0.773117 0.634264 0.581862 -0.813287 481.713 846.524)" fill="white" fill-opacity="0.07"/>
<ellipse cx="23.452" cy="22.8043" rx="23.452" ry="22.8043" transform="matrix(0.773117 0.634264 0.581862 -0.813287 356.445 567.161)" fill="white" fill-opacity="0.07"/>
<ellipse cx="23.452" cy="22.8043" rx="23.452" ry="22.8043" transform="matrix(0.773117 0.634264 0.581862 -0.813287 410.505 905.834)" fill="white" fill-opacity="0.07"/>
<ellipse cx="23.452" cy="22.8043" rx="23.452" ry="22.8043" transform="matrix(0.773117 0.634264 0.581862 -0.813287 466.795 1040.31)" fill="white" fill-opacity="0.07"/>
<ellipse cx="23.452" cy="22.8043" rx="23.452" ry="22.8043" transform="matrix(0.773117 0.634264 0.581862 -0.813287 321.168 950.271)" fill="white" fill-opacity="0.07"/>
<ellipse cx="23.452" cy="22.8043" rx="23.452" ry="22.8043" transform="matrix(0.773117 0.634264 0.581862 -0.813287 405.756 1125.62)" fill="white" fill-opacity="0.07"/>
<ellipse cx="23.452" cy="22.8043" rx="23.452" ry="22.8043" transform="matrix(0.773117 0.634264 0.581862 -0.813287 481.91 1188.1)" fill="white" fill-opacity="0.07"/>
<ellipse cx="23.452" cy="22.8043" rx="23.452" ry="22.8043" transform="matrix(0.773117 0.634264 0.581862 -0.813287 344.942 1190.52)" fill="white" fill-opacity="0.07"/>
<ellipse cx="23.452" cy="22.8043" rx="23.452" ry="22.8043" transform="matrix(0.773117 0.634264 0.581862 -0.813287 429.715 1301.27)" fill="white" fill-opacity="0.07"/>
<ellipse cx="23.452" cy="22.8043" rx="23.452" ry="22.8043" transform="matrix(0.773117 0.634264 0.581862 -0.813287 436.207 1400.78)" fill="white" fill-opacity="0.07"/>
<ellipse cx="23.452" cy="22.8043" rx="23.452" ry="22.8043" transform="matrix(0.773117 0.634264 0.581862 -0.813287 499.161 318.471)" fill="white" fill-opacity="0.07"/>
<ellipse cx="23.452" cy="22.8043" rx="23.452" ry="22.8043" transform="matrix(0.773117 0.634264 0.581862 -0.813287 554.157 170.155)" fill="white" fill-opacity="0.07"/>
<ellipse cx="23.452" cy="22.8043" rx="23.452" ry="22.8043" transform="matrix(0.773117 0.634264 0.581862 -0.813287 535.696 449.331)" fill="white" fill-opacity="0.07"/>
<ellipse cx="23.452" cy="22.8043" rx="23.452" ry="22.8043" transform="matrix(0.773117 0.634264 0.581862 -0.813287 328.258 779.494)" fill="white" fill-opacity="0.07"/>
<ellipse cx="23.452" cy="22.8043" rx="23.452" ry="22.8043" transform="matrix(0.773117 0.634264 0.581862 -0.813287 299.046 1061.63)" fill="white" fill-opacity="0.07"/>
</g>
<defs>
<filter id="filter0_f_405_5" x="293.977" y="12.7785" width="328.05" height="1422.1" filterUnits="userSpaceOnUse" color-interpolation-filters="sRGB">
<feFlood flood-opacity="0" result="BackgroundImageFix"/>
<feBlend mode="normal" in="SourceGraphic" in2="BackgroundImageFix" result="shape"/>
<feGaussianBlur stdDeviation="7" result="effect1_foregroundBlur_405_5"/>
</filter>
</defs>
</svg>
