<svg width="1919" height="2046" viewBox="0 0 1919 2046" fill="none" xmlns="http://www.w3.org/2000/svg">
<g filter="url(#filter0_f_415_31)">
<circle cx="12.3854" cy="12.3854" r="12.3854" transform="matrix(0.97437 0.224951 0.224951 -0.97437 662.676 1582.29)" fill="white" fill-opacity="0.15"/>
<circle cx="12.3854" cy="12.3854" r="12.3854" transform="matrix(0.97437 0.224951 0.224951 -0.97437 609.025 1522.87)" fill="white" fill-opacity="0.15"/>
<circle cx="12.3854" cy="12.3854" r="12.3854" transform="matrix(0.97437 0.224951 0.224951 -0.97437 615.903 1438.03)" fill="white" fill-opacity="0.15"/>
<circle cx="12.3854" cy="12.3854" r="12.3854" transform="matrix(0.97437 0.224951 0.224951 -0.97437 559.934 1333.58)" fill="white" fill-opacity="0.15"/>
<circle cx="12.3854" cy="12.3854" r="12.3854" transform="matrix(0.97437 0.224951 0.224951 -0.97437 545.446 1396.34)" fill="white" fill-opacity="0.15"/>
<circle cx="12.3854" cy="12.3854" r="12.3854" transform="matrix(0.97437 0.224951 0.224951 -0.97437 672.046 1651.82)" fill="white" fill-opacity="0.15"/>
<circle cx="12.3854" cy="12.3854" r="12.3854" transform="matrix(0.97437 0.224951 0.224951 -0.97437 721.241 1714.03)" fill="white" fill-opacity="0.15"/>
<circle cx="12.3854" cy="12.3854" r="12.3854" transform="matrix(0.97437 0.224951 0.224951 -0.97437 601.59 1610.14)" fill="white" fill-opacity="0.15"/>
<circle cx="12.3854" cy="12.3854" r="12.3854" transform="matrix(0.97437 0.224951 0.224951 -0.97437 698.029 1759.51)" fill="white" fill-opacity="0.15"/>
<circle cx="12.3854" cy="12.3854" r="12.3854" transform="matrix(0.97437 0.224951 0.224951 -0.97437 753.631 1810.48)" fill="white" fill-opacity="0.15"/>
<circle cx="12.3854" cy="12.3854" r="12.3854" transform="matrix(0.97437 0.224951 0.224951 -0.97437 662.749 1802.21)" fill="white" fill-opacity="0.15"/>
<circle cx="12.3854" cy="12.3854" r="12.3854" transform="matrix(0.97437 0.224951 0.224951 -0.97437 740.815 1866)" fill="white" fill-opacity="0.15"/>
<circle cx="12.3854" cy="12.3854" r="12.3854" transform="matrix(0.97437 0.224951 0.224951 -0.97437 791.5 1877.7)" fill="white" fill-opacity="0.15"/>
<circle cx="12.3854" cy="12.3854" r="12.3854" transform="matrix(0.97437 0.224951 0.224951 -0.97437 723.915 1911.67)" fill="white" fill-opacity="0.15"/>
<circle cx="12.3854" cy="12.3854" r="12.3854" transform="matrix(0.97437 0.224951 0.224951 -0.97437 788.802 1944.44)" fill="white" fill-opacity="0.15"/>
<circle cx="12.3854" cy="12.3854" r="12.3854" transform="matrix(0.97437 0.224951 0.224951 -0.97437 812.47 1990.58)" fill="white" fill-opacity="0.15"/>
<circle cx="12.3854" cy="12.3854" r="12.3854" transform="matrix(0.97437 0.224951 0.224951 -0.97437 621.45 1456.75)" fill="white" fill-opacity="0.15"/>
<circle cx="12.3854" cy="12.3854" r="12.3854" transform="matrix(0.97437 0.224951 0.224951 -0.97437 618.322 1372.49)" fill="white" fill-opacity="0.15"/>
<circle cx="12.3854" cy="12.3854" r="12.3854" transform="matrix(0.97437 0.224951 0.224951 -0.97437 666.49 1510.72)" fill="white" fill-opacity="0.15"/>
<circle cx="12.3854" cy="12.3854" r="12.3854" transform="matrix(0.97437 0.224951 0.224951 -0.97437 631.193 1718.66)" fill="white" fill-opacity="0.15"/>
<circle cx="12.3854" cy="12.3854" r="12.3854" transform="matrix(0.97437 0.224951 0.224951 -0.97437 674.626 1860.88)" fill="white" fill-opacity="0.15"/>
</g>
<g filter="url(#filter1_f_415_31)">
<ellipse cx="15.0106" cy="14.596" rx="15.0106" ry="14.596" transform="matrix(0.773117 0.634264 0.581862 -0.813287 715.271 1474.32)" fill="white" fill-opacity="0.15"/>
<ellipse cx="15.0106" cy="14.596" rx="15.0106" ry="14.596" transform="matrix(0.773117 0.634264 0.581862 -0.813287 685.188 1379.94)" fill="white" fill-opacity="0.15"/>
<ellipse cx="15.0106" cy="14.596" rx="15.0106" ry="14.596" transform="matrix(0.773117 0.634264 0.581862 -0.813287 731.334 1289.69)" fill="white" fill-opacity="0.15"/>
<ellipse cx="15.0106" cy="14.596" rx="15.0106" ry="14.596" transform="matrix(0.773117 0.634264 0.581862 -0.813287 719.372 1144.24)" fill="white" fill-opacity="0.15"/>
<ellipse cx="15.0106" cy="14.596" rx="15.0106" ry="14.596" transform="matrix(0.773117 0.634264 0.581862 -0.813287 675.208 1205.97)" fill="white" fill-opacity="0.15"/>
<ellipse cx="15.0106" cy="14.596" rx="15.0106" ry="14.596" transform="matrix(0.773117 0.634264 0.581862 -0.813287 693.467 1556.27)" fill="white" fill-opacity="0.15"/>
<ellipse cx="15.0106" cy="14.596" rx="15.0106" ry="14.596" transform="matrix(0.773117 0.634264 0.581862 -0.813287 717.521 1651.36)" fill="white" fill-opacity="0.15"/>
<ellipse cx="15.0106" cy="14.596" rx="15.0106" ry="14.596" transform="matrix(0.773117 0.634264 0.581862 -0.813287 637.342 1472.55)" fill="white" fill-opacity="0.15"/>
<ellipse cx="15.0106" cy="14.596" rx="15.0106" ry="14.596" transform="matrix(0.773117 0.634264 0.581862 -0.813287 671.944 1689.32)" fill="white" fill-opacity="0.15"/>
<ellipse cx="15.0106" cy="14.596" rx="15.0106" ry="14.596" transform="matrix(0.773117 0.634264 0.581862 -0.813287 707.973 1775.39)" fill="white" fill-opacity="0.15"/>
<ellipse cx="15.0106" cy="14.596" rx="15.0106" ry="14.596" transform="matrix(0.773117 0.634264 0.581862 -0.813287 614.763 1717.76)" fill="white" fill-opacity="0.15"/>
<ellipse cx="15.0106" cy="14.596" rx="15.0106" ry="14.596" transform="matrix(0.773117 0.634264 0.581862 -0.813287 668.905 1830)" fill="white" fill-opacity="0.15"/>
<ellipse cx="15.0106" cy="14.596" rx="15.0106" ry="14.596" transform="matrix(0.773117 0.634264 0.581862 -0.813287 717.647 1869.99)" fill="white" fill-opacity="0.15"/>
<ellipse cx="15.0106" cy="14.596" rx="15.0106" ry="14.596" transform="matrix(0.773117 0.634264 0.581862 -0.813287 629.98 1871.54)" fill="white" fill-opacity="0.15"/>
<ellipse cx="15.0106" cy="14.596" rx="15.0106" ry="14.596" transform="matrix(0.773117 0.634264 0.581862 -0.813287 684.239 1942.42)" fill="white" fill-opacity="0.15"/>
<ellipse cx="15.0106" cy="14.596" rx="15.0106" ry="14.596" transform="matrix(0.773117 0.634264 0.581862 -0.813287 688.395 2006.12)" fill="white" fill-opacity="0.15"/>
<ellipse cx="15.0106" cy="14.596" rx="15.0106" ry="14.596" transform="matrix(0.773117 0.634264 0.581862 -0.813287 728.691 1313.38)" fill="white" fill-opacity="0.15"/>
<ellipse cx="15.0106" cy="14.596" rx="15.0106" ry="14.596" transform="matrix(0.773117 0.634264 0.581862 -0.813287 763.892 1218.44)" fill="white" fill-opacity="0.15"/>
<ellipse cx="15.0106" cy="14.596" rx="15.0106" ry="14.596" transform="matrix(0.773117 0.634264 0.581862 -0.813287 752.076 1397.13)" fill="white" fill-opacity="0.15"/>
<ellipse cx="15.0106" cy="14.596" rx="15.0106" ry="14.596" transform="matrix(0.773117 0.634264 0.581862 -0.813287 619.301 1608.46)" fill="white" fill-opacity="0.15"/>
<ellipse cx="15.0106" cy="14.596" rx="15.0106" ry="14.596" transform="matrix(0.773117 0.634264 0.581862 -0.813287 600.604 1789.04)" fill="white" fill-opacity="0.15"/>
</g>
<g filter="url(#filter2_f_415_31)">
<ellipse cx="15.0106" cy="14.596" rx="15.0106" ry="14.596" transform="matrix(0.773117 0.634264 0.581862 -0.813287 747.074 625.781)" fill="white" fill-opacity="0.15"/>
<ellipse cx="15.0106" cy="14.596" rx="15.0106" ry="14.596" transform="matrix(0.773117 0.634264 0.581862 -0.813287 716.99 531.4)" fill="white" fill-opacity="0.15"/>
<ellipse cx="15.0106" cy="14.596" rx="15.0106" ry="14.596" transform="matrix(0.773117 0.634264 0.581862 -0.813287 763.137 441.158)" fill="white" fill-opacity="0.15"/>
<ellipse cx="15.0106" cy="14.596" rx="15.0106" ry="14.596" transform="matrix(0.773117 0.634264 0.581862 -0.813287 751.175 295.708)" fill="white" fill-opacity="0.15"/>
<ellipse cx="15.0106" cy="14.596" rx="15.0106" ry="14.596" transform="matrix(0.773117 0.634264 0.581862 -0.813287 707.011 357.436)" fill="white" fill-opacity="0.15"/>
<ellipse cx="15.0106" cy="14.596" rx="15.0106" ry="14.596" transform="matrix(0.773117 0.634264 0.581862 -0.813287 725.27 707.738)" fill="white" fill-opacity="0.15"/>
<ellipse cx="15.0106" cy="14.596" rx="15.0106" ry="14.596" transform="matrix(0.773117 0.634264 0.581862 -0.813287 749.324 802.824)" fill="white" fill-opacity="0.15"/>
<ellipse cx="15.0106" cy="14.596" rx="15.0106" ry="14.596" transform="matrix(0.773117 0.634264 0.581862 -0.813287 669.145 624.016)" fill="white" fill-opacity="0.15"/>
<ellipse cx="15.0106" cy="14.596" rx="15.0106" ry="14.596" transform="matrix(0.773117 0.634264 0.581862 -0.813287 703.747 840.787)" fill="white" fill-opacity="0.15"/>
<ellipse cx="15.0106" cy="14.596" rx="15.0106" ry="14.596" transform="matrix(0.773117 0.634264 0.581862 -0.813287 739.775 926.859)" fill="white" fill-opacity="0.15"/>
<ellipse cx="15.0106" cy="14.596" rx="15.0106" ry="14.596" transform="matrix(0.773117 0.634264 0.581862 -0.813287 646.566 869.229)" fill="white" fill-opacity="0.15"/>
<ellipse cx="15.0106" cy="14.596" rx="15.0106" ry="14.596" transform="matrix(0.773117 0.634264 0.581862 -0.813287 700.707 981.464)" fill="white" fill-opacity="0.15"/>
<ellipse cx="15.0106" cy="14.596" rx="15.0106" ry="14.596" transform="matrix(0.773117 0.634264 0.581862 -0.813287 749.45 1021.45)" fill="white" fill-opacity="0.15"/>
<ellipse cx="15.0106" cy="14.596" rx="15.0106" ry="14.596" transform="matrix(0.773117 0.634264 0.581862 -0.813287 661.782 1023)" fill="white" fill-opacity="0.15"/>
<ellipse cx="15.0106" cy="14.596" rx="15.0106" ry="14.596" transform="matrix(0.773117 0.634264 0.581862 -0.813287 716.042 1093.89)" fill="white" fill-opacity="0.15"/>
<ellipse cx="15.0106" cy="14.596" rx="15.0106" ry="14.596" transform="matrix(0.773117 0.634264 0.581862 -0.813287 720.197 1157.58)" fill="white" fill-opacity="0.15"/>
<ellipse cx="15.0106" cy="14.596" rx="15.0106" ry="14.596" transform="matrix(0.773117 0.634264 0.581862 -0.813287 760.494 464.84)" fill="white" fill-opacity="0.15"/>
<ellipse cx="15.0106" cy="14.596" rx="15.0106" ry="14.596" transform="matrix(0.773117 0.634264 0.581862 -0.813287 795.694 369.909)" fill="white" fill-opacity="0.15"/>
<ellipse cx="15.0106" cy="14.596" rx="15.0106" ry="14.596" transform="matrix(0.773117 0.634264 0.581862 -0.813287 783.879 548.597)" fill="white" fill-opacity="0.15"/>
<ellipse cx="15.0106" cy="14.596" rx="15.0106" ry="14.596" transform="matrix(0.773117 0.634264 0.581862 -0.813287 651.103 759.921)" fill="white" fill-opacity="0.15"/>
<ellipse cx="15.0106" cy="14.596" rx="15.0106" ry="14.596" transform="matrix(0.773117 0.634264 0.581862 -0.813287 632.406 940.502)" fill="white" fill-opacity="0.15"/>
</g>
<g filter="url(#filter3_f_415_31)">
<ellipse cx="23.452" cy="22.8043" rx="23.452" ry="22.8043" transform="matrix(0.773117 0.634264 0.581862 -0.813287 478.198 1039.92)" fill="white" fill-opacity="0.15"/>
<ellipse cx="23.452" cy="22.8043" rx="23.452" ry="22.8043" transform="matrix(0.773117 0.634264 0.581862 -0.813287 431.197 892.461)" fill="white" fill-opacity="0.15"/>
<ellipse cx="23.452" cy="22.8043" rx="23.452" ry="22.8043" transform="matrix(0.773117 0.634264 0.581862 -0.813287 503.29 751.471)" fill="white" fill-opacity="0.15"/>
<ellipse cx="23.452" cy="22.8043" rx="23.452" ry="22.8043" transform="matrix(0.773117 0.634264 0.581862 -0.813287 484.602 524.226)" fill="white" fill-opacity="0.15"/>
<ellipse cx="23.452" cy="22.8043" rx="23.452" ry="22.8043" transform="matrix(0.773117 0.634264 0.581862 -0.813287 415.601 620.667)" fill="white" fill-opacity="0.15"/>
<ellipse cx="23.452" cy="22.8043" rx="23.452" ry="22.8043" transform="matrix(0.773117 0.634264 0.581862 -0.813287 444.133 1167.97)" fill="white" fill-opacity="0.15"/>
<ellipse cx="23.452" cy="22.8043" rx="23.452" ry="22.8043" transform="matrix(0.773117 0.634264 0.581862 -0.813287 481.714 1316.52)" fill="white" fill-opacity="0.15"/>
<ellipse cx="23.452" cy="22.8043" rx="23.452" ry="22.8043" transform="matrix(0.773117 0.634264 0.581862 -0.813287 356.445 1037.16)" fill="white" fill-opacity="0.15"/>
<ellipse cx="23.452" cy="22.8043" rx="23.452" ry="22.8043" transform="matrix(0.773117 0.634264 0.581862 -0.813287 410.505 1375.83)" fill="white" fill-opacity="0.15"/>
<ellipse cx="23.452" cy="22.8043" rx="23.452" ry="22.8043" transform="matrix(0.773117 0.634264 0.581862 -0.813287 466.795 1510.31)" fill="white" fill-opacity="0.15"/>
<ellipse cx="23.452" cy="22.8043" rx="23.452" ry="22.8043" transform="matrix(0.773117 0.634264 0.581862 -0.813287 321.168 1420.27)" fill="white" fill-opacity="0.15"/>
<ellipse cx="23.452" cy="22.8043" rx="23.452" ry="22.8043" transform="matrix(0.773117 0.634264 0.581862 -0.813287 405.757 1595.62)" fill="white" fill-opacity="0.15"/>
<ellipse cx="23.452" cy="22.8043" rx="23.452" ry="22.8043" transform="matrix(0.773117 0.634264 0.581862 -0.813287 481.91 1658.1)" fill="white" fill-opacity="0.15"/>
<ellipse cx="23.452" cy="22.8043" rx="23.452" ry="22.8043" transform="matrix(0.773117 0.634264 0.581862 -0.813287 344.942 1660.52)" fill="white" fill-opacity="0.15"/>
<ellipse cx="23.452" cy="22.8043" rx="23.452" ry="22.8043" transform="matrix(0.773117 0.634264 0.581862 -0.813287 429.715 1771.27)" fill="white" fill-opacity="0.15"/>
<ellipse cx="23.452" cy="22.8043" rx="23.452" ry="22.8043" transform="matrix(0.773117 0.634264 0.581862 -0.813287 436.207 1870.78)" fill="white" fill-opacity="0.15"/>
<ellipse cx="23.452" cy="22.8043" rx="23.452" ry="22.8043" transform="matrix(0.773117 0.634264 0.581862 -0.813287 499.161 788.471)" fill="white" fill-opacity="0.15"/>
<ellipse cx="23.452" cy="22.8043" rx="23.452" ry="22.8043" transform="matrix(0.773117 0.634264 0.581862 -0.813287 554.157 640.155)" fill="white" fill-opacity="0.15"/>
<ellipse cx="23.452" cy="22.8043" rx="23.452" ry="22.8043" transform="matrix(0.773117 0.634264 0.581862 -0.813287 535.696 919.331)" fill="white" fill-opacity="0.15"/>
<ellipse cx="23.452" cy="22.8043" rx="23.452" ry="22.8043" transform="matrix(0.773117 0.634264 0.581862 -0.813287 328.258 1249.49)" fill="white" fill-opacity="0.15"/>
<ellipse cx="23.452" cy="22.8043" rx="23.452" ry="22.8043" transform="matrix(0.773117 0.634264 0.581862 -0.813287 299.046 1531.63)" fill="white" fill-opacity="0.15"/>
</g>
<g filter="url(#filter4_f_415_31)">
<ellipse cx="28.1073" cy="31.056" rx="28.1073" ry="31.056" transform="matrix(0.862946 0.505296 0.694246 -0.719738 1264.81 1065.79)" fill="white" fill-opacity="0.15"/>
<ellipse cx="28.1073" cy="31.056" rx="28.1073" ry="31.056" transform="matrix(0.862946 0.505296 0.694246 -0.719738 1216.03 907.816)" fill="white" fill-opacity="0.15"/>
<ellipse cx="28.1073" cy="31.056" rx="28.1073" ry="31.056" transform="matrix(0.862946 0.505296 0.694246 -0.719738 1338.38 741.618)" fill="white" fill-opacity="0.15"/>
<ellipse cx="28.1073" cy="31.056" rx="28.1073" ry="31.056" transform="matrix(0.862946 0.505296 0.694246 -0.719738 1340.81 491.207)" fill="white" fill-opacity="0.15"/>
<ellipse cx="28.1073" cy="31.056" rx="28.1073" ry="31.056" transform="matrix(0.862946 0.505296 0.694246 -0.719738 1228.7 607.438)" fill="white" fill-opacity="0.15"/>
<ellipse cx="28.1073" cy="31.056" rx="28.1073" ry="31.056" transform="matrix(0.862946 0.505296 0.694246 -0.719738 1199.04 1212.66)" fill="white" fill-opacity="0.15"/>
<ellipse cx="28.1073" cy="31.056" rx="28.1073" ry="31.056" transform="matrix(0.862946 0.505296 0.694246 -0.719738 1234.08 1373.08)" fill="white" fill-opacity="0.15"/>
<ellipse cx="28.1073" cy="31.056" rx="28.1073" ry="31.056" transform="matrix(0.862946 0.505296 0.694246 -0.719738 1089.36 1078.48)" fill="white" fill-opacity="0.15"/>
<ellipse cx="28.1073" cy="31.056" rx="28.1073" ry="31.056" transform="matrix(0.862946 0.505296 0.694246 -0.719738 1123.58 1448.29)" fill="white" fill-opacity="0.15"/>
<ellipse cx="28.1073" cy="31.056" rx="28.1073" ry="31.056" transform="matrix(0.862946 0.505296 0.694246 -0.719738 1187.45 1590.62)" fill="white" fill-opacity="0.15"/>
<ellipse cx="28.1073" cy="31.056" rx="28.1073" ry="31.056" transform="matrix(0.862946 0.505296 0.694246 -0.719738 988.829 1509.29)" fill="white" fill-opacity="0.15"/>
<ellipse cx="28.1073" cy="31.056" rx="28.1073" ry="31.056" transform="matrix(0.862946 0.505296 0.694246 -0.719738 1088.27 1693.44)" fill="white" fill-opacity="0.15"/>
<ellipse cx="28.1073" cy="31.056" rx="28.1073" ry="31.056" transform="matrix(0.862946 0.505296 0.694246 -0.719738 1190.15 1753.09)" fill="white" fill-opacity="0.15"/>
<ellipse cx="28.1073" cy="31.056" rx="28.1073" ry="31.056" transform="matrix(0.862946 0.505296 0.694246 -0.719738 992.059 1773.51)" fill="white" fill-opacity="0.15"/>
<ellipse cx="28.1073" cy="31.056" rx="28.1073" ry="31.056" transform="matrix(0.862946 0.505296 0.694246 -0.719738 1100.13 1885.76)" fill="white" fill-opacity="0.15"/>
<ellipse cx="28.1073" cy="31.056" rx="28.1073" ry="31.056" transform="matrix(0.862946 0.505296 0.694246 -0.719738 1096.62 1995.63)" fill="white" fill-opacity="0.15"/>
<ellipse cx="28.1073" cy="31.056" rx="28.1073" ry="31.056" transform="matrix(0.862946 0.505296 0.694246 -0.719738 1327.63 783.319)" fill="white" fill-opacity="0.15"/>
<ellipse cx="28.1073" cy="31.056" rx="28.1073" ry="31.056" transform="matrix(0.862946 0.505296 0.694246 -0.719738 1426.24 611.185)" fill="white" fill-opacity="0.15"/>
<ellipse cx="28.1073" cy="31.056" rx="28.1073" ry="31.056" transform="matrix(0.862946 0.505296 0.694246 -0.719738 1363.45 924.182)" fill="white" fill-opacity="0.15"/>
<ellipse cx="28.1073" cy="31.056" rx="28.1073" ry="31.056" transform="matrix(0.862946 0.505296 0.694246 -0.719738 1021.17 1318.37)" fill="white" fill-opacity="0.15"/>
<ellipse cx="28.1073" cy="31.056" rx="28.1073" ry="31.056" transform="matrix(0.862946 0.505296 0.694246 -0.719738 942.472 1636.05)" fill="white" fill-opacity="0.15"/>
</g>
<g filter="url(#filter5_f_415_31)">
<ellipse cx="10.5231" cy="10.2325" rx="10.5231" ry="10.2325" transform="matrix(0.853865 0.520494 0.463011 -0.886352 1218.13 905.501)" fill="white" fill-opacity="0.15"/>
<ellipse cx="10.5231" cy="10.2325" rx="10.5231" ry="10.2325" transform="matrix(0.853865 0.520494 0.463011 -0.886352 1188.03 842.915)" fill="white" fill-opacity="0.15"/>
<ellipse cx="10.5231" cy="10.2325" rx="10.5231" ry="10.2325" transform="matrix(0.853865 0.520494 0.463011 -0.886352 1211.26 775.765)" fill="white" fill-opacity="0.15"/>
<ellipse cx="10.5231" cy="10.2325" rx="10.5231" ry="10.2325" transform="matrix(0.853865 0.520494 0.463011 -0.886352 1188.77 675.957)" fill="white" fill-opacity="0.15"/>
<ellipse cx="10.5231" cy="10.2325" rx="10.5231" ry="10.2325" transform="matrix(0.853865 0.520494 0.463011 -0.886352 1164.13 723.119)" fill="white" fill-opacity="0.15"/>
<ellipse cx="10.5231" cy="10.2325" rx="10.5231" ry="10.2325" transform="matrix(0.853865 0.520494 0.463011 -0.886352 1210.98 964.525)" fill="white" fill-opacity="0.15"/>
<ellipse cx="10.5231" cy="10.2325" rx="10.5231" ry="10.2325" transform="matrix(0.853865 0.520494 0.463011 -0.886352 1236.96 1028.19)" fill="white" fill-opacity="0.15"/>
<ellipse cx="10.5231" cy="10.2325" rx="10.5231" ry="10.2325" transform="matrix(0.853865 0.520494 0.463011 -0.886352 1163.85 911.879)" fill="white" fill-opacity="0.15"/>
<ellipse cx="10.5231" cy="10.2325" rx="10.5231" ry="10.2325" transform="matrix(0.853865 0.520494 0.463011 -0.886352 1209.02 1058.99)" fill="white" fill-opacity="0.15"/>
<ellipse cx="10.5231" cy="10.2325" rx="10.5231" ry="10.2325" transform="matrix(0.853865 0.520494 0.463011 -0.886352 1242.43 1115.23)" fill="white" fill-opacity="0.15"/>
<ellipse cx="10.5231" cy="10.2325" rx="10.5231" ry="10.2325" transform="matrix(0.853865 0.520494 0.463011 -0.886352 1172.1 1084.31)" fill="white" fill-opacity="0.15"/>
<ellipse cx="10.5231" cy="10.2325" rx="10.5231" ry="10.2325" transform="matrix(0.853865 0.520494 0.463011 -0.886352 1220.64 1156.95)" fill="white" fill-opacity="0.15"/>
<ellipse cx="10.5231" cy="10.2325" rx="10.5231" ry="10.2325" transform="matrix(0.853865 0.520494 0.463011 -0.886352 1258.38 1179.95)" fill="white" fill-opacity="0.15"/>
<ellipse cx="10.5231" cy="10.2325" rx="10.5231" ry="10.2325" transform="matrix(0.853865 0.520494 0.463011 -0.886352 1197.67 1189.58)" fill="white" fill-opacity="0.15"/>
<ellipse cx="10.5231" cy="10.2325" rx="10.5231" ry="10.2325" transform="matrix(0.853865 0.520494 0.463011 -0.886352 1242.25 1233.5)" fill="white" fill-opacity="0.15"/>
<ellipse cx="10.5231" cy="10.2325" rx="10.5231" ry="10.2325" transform="matrix(0.853865 0.520494 0.463011 -0.886352 1251.35 1277.31)" fill="white" fill-opacity="0.15"/>
<ellipse cx="10.5231" cy="10.2325" rx="10.5231" ry="10.2325" transform="matrix(0.853865 0.520494 0.463011 -0.886352 1211.74 792.463)" fill="white" fill-opacity="0.15"/>
<ellipse cx="10.5231" cy="10.2325" rx="10.5231" ry="10.2325" transform="matrix(0.853865 0.520494 0.463011 -0.886352 1226.91 723.126)" fill="white" fill-opacity="0.15"/>
<ellipse cx="10.5231" cy="10.2325" rx="10.5231" ry="10.2325" transform="matrix(0.853865 0.520494 0.463011 -0.886352 1236.15 848.328)" fill="white" fill-opacity="0.15"/>
<ellipse cx="10.5231" cy="10.2325" rx="10.5231" ry="10.2325" transform="matrix(0.853865 0.520494 0.463011 -0.886352 1164.59 1007.99)" fill="white" fill-opacity="0.15"/>
<ellipse cx="10.5231" cy="10.2325" rx="10.5231" ry="10.2325" transform="matrix(0.853865 0.520494 0.463011 -0.886352 1169.23 1135.17)" fill="white" fill-opacity="0.15"/>
</g>
<g filter="url(#filter6_f_415_31)">
<ellipse cx="10.5231" cy="10.2325" rx="10.5231" ry="10.2325" transform="matrix(0.853865 0.520494 0.463011 -0.886352 354.013 258.403)" fill="white" fill-opacity="0.15"/>
<ellipse cx="10.5231" cy="10.2325" rx="10.5231" ry="10.2325" transform="matrix(0.853865 0.520494 0.463011 -0.886352 323.919 195.817)" fill="white" fill-opacity="0.15"/>
<ellipse cx="10.5231" cy="10.2325" rx="10.5231" ry="10.2325" transform="matrix(0.853865 0.520494 0.463011 -0.886352 347.151 128.666)" fill="white" fill-opacity="0.15"/>
<ellipse cx="10.5231" cy="10.2325" rx="10.5231" ry="10.2325" transform="matrix(0.853865 0.520494 0.463011 -0.886352 324.656 28.8591)" fill="white" fill-opacity="0.15"/>
<ellipse cx="10.5231" cy="10.2325" rx="10.5231" ry="10.2325" transform="matrix(0.853865 0.520494 0.463011 -0.886352 300.018 76.0208)" fill="white" fill-opacity="0.15"/>
<ellipse cx="10.5231" cy="10.2325" rx="10.5231" ry="10.2325" transform="matrix(0.853865 0.520494 0.463011 -0.886352 346.872 317.426)" fill="white" fill-opacity="0.15"/>
<ellipse cx="10.5231" cy="10.2325" rx="10.5231" ry="10.2325" transform="matrix(0.853865 0.520494 0.463011 -0.886352 372.848 381.09)" fill="white" fill-opacity="0.15"/>
<ellipse cx="10.5231" cy="10.2325" rx="10.5231" ry="10.2325" transform="matrix(0.853865 0.520494 0.463011 -0.886352 299.74 264.781)" fill="white" fill-opacity="0.15"/>
<ellipse cx="10.5231" cy="10.2325" rx="10.5231" ry="10.2325" transform="matrix(0.853865 0.520494 0.463011 -0.886352 344.911 411.892)" fill="white" fill-opacity="0.15"/>
<ellipse cx="10.5231" cy="10.2325" rx="10.5231" ry="10.2325" transform="matrix(0.853865 0.520494 0.463011 -0.886352 378.321 468.129)" fill="white" fill-opacity="0.15"/>
<ellipse cx="10.5231" cy="10.2325" rx="10.5231" ry="10.2325" transform="matrix(0.853865 0.520494 0.463011 -0.886352 307.99 437.216)" fill="white" fill-opacity="0.15"/>
<ellipse cx="10.5231" cy="10.2325" rx="10.5231" ry="10.2325" transform="matrix(0.853865 0.520494 0.463011 -0.886352 356.527 509.849)" fill="white" fill-opacity="0.15"/>
<ellipse cx="10.5231" cy="10.2325" rx="10.5231" ry="10.2325" transform="matrix(0.853865 0.520494 0.463011 -0.886352 394.266 532.854)" fill="white" fill-opacity="0.15"/>
<ellipse cx="10.5231" cy="10.2325" rx="10.5231" ry="10.2325" transform="matrix(0.853865 0.520494 0.463011 -0.886352 333.557 542.482)" fill="white" fill-opacity="0.15"/>
<ellipse cx="10.5231" cy="10.2325" rx="10.5231" ry="10.2325" transform="matrix(0.853865 0.520494 0.463011 -0.886352 378.141 586.399)" fill="white" fill-opacity="0.15"/>
<ellipse cx="10.5231" cy="10.2325" rx="10.5231" ry="10.2325" transform="matrix(0.853865 0.520494 0.463011 -0.886352 387.24 630.211)" fill="white" fill-opacity="0.15"/>
<ellipse cx="10.5231" cy="10.2325" rx="10.5231" ry="10.2325" transform="matrix(0.853865 0.520494 0.463011 -0.886352 347.627 145.365)" fill="white" fill-opacity="0.15"/>
<ellipse cx="10.5231" cy="10.2325" rx="10.5231" ry="10.2325" transform="matrix(0.853865 0.520494 0.463011 -0.886352 362.801 76.0278)" fill="white" fill-opacity="0.15"/>
<ellipse cx="10.5231" cy="10.2325" rx="10.5231" ry="10.2325" transform="matrix(0.853865 0.520494 0.463011 -0.886352 372.033 201.23)" fill="white" fill-opacity="0.15"/>
<ellipse cx="10.5231" cy="10.2325" rx="10.5231" ry="10.2325" transform="matrix(0.853865 0.520494 0.463011 -0.886352 300.476 360.889)" fill="white" fill-opacity="0.15"/>
<ellipse cx="10.5231" cy="10.2325" rx="10.5231" ry="10.2325" transform="matrix(0.853865 0.520494 0.463011 -0.886352 305.114 488.076)" fill="white" fill-opacity="0.15"/>
</g>
<g filter="url(#filter7_f_415_31)">
<ellipse cx="10.5231" cy="10.2325" rx="10.5231" ry="10.2325" transform="matrix(-0.805252 -0.592933 -0.5385 0.842625 879.953 426.789)" fill="white" fill-opacity="0.15"/>
<ellipse cx="10.5231" cy="10.2325" rx="10.5231" ry="10.2325" transform="matrix(-0.805252 -0.592933 -0.5385 0.842625 904.477 491.76)" fill="white" fill-opacity="0.15"/>
<ellipse cx="10.5231" cy="10.2325" rx="10.5231" ry="10.2325" transform="matrix(-0.805252 -0.592933 -0.5385 0.842625 875.481 556.63)" fill="white" fill-opacity="0.15"/>
<ellipse cx="10.5231" cy="10.2325" rx="10.5231" ry="10.2325" transform="matrix(-0.805252 -0.592933 -0.5385 0.842625 889.192 658.018)" fill="white" fill-opacity="0.15"/>
<ellipse cx="10.5231" cy="10.2325" rx="10.5231" ry="10.2325" transform="matrix(-0.805252 -0.592933 -0.5385 0.842625 917.846 613.183)" fill="white" fill-opacity="0.15"/>
<ellipse cx="10.5231" cy="10.2325" rx="10.5231" ry="10.2325" transform="matrix(-0.805252 -0.592933 -0.5385 0.842625 892.211 368.613)" fill="white" fill-opacity="0.15"/>
<ellipse cx="10.5231" cy="10.2325" rx="10.5231" ry="10.2325" transform="matrix(-0.805252 -0.592933 -0.5385 0.842625 871.883 302.927)" fill="white" fill-opacity="0.15"/>
<ellipse cx="10.5231" cy="10.2325" rx="10.5231" ry="10.2325" transform="matrix(-0.805252 -0.592933 -0.5385 0.842625 934.575 425.166)" fill="white" fill-opacity="0.15"/>
<ellipse cx="10.5231" cy="10.2325" rx="10.5231" ry="10.2325" transform="matrix(-0.805252 -0.592933 -0.5385 0.842625 902.397 274.678)" fill="white" fill-opacity="0.15"/>
<ellipse cx="10.5231" cy="10.2325" rx="10.5231" ry="10.2325" transform="matrix(-0.805252 -0.592933 -0.5385 0.842625 874.016 215.742)" fill="white" fill-opacity="0.15"/>
<ellipse cx="10.5231" cy="10.2325" rx="10.5231" ry="10.2325" transform="matrix(-0.805252 -0.592933 -0.5385 0.842625 941.385 252.668)" fill="white" fill-opacity="0.15"/>
<ellipse cx="10.5231" cy="10.2325" rx="10.5231" ry="10.2325" transform="matrix(-0.805252 -0.592933 -0.5385 0.842625 899.364 176.08)" fill="white" fill-opacity="0.15"/>
<ellipse cx="10.5231" cy="10.2325" rx="10.5231" ry="10.2325" transform="matrix(-0.805252 -0.592933 -0.5385 0.842625 863.773 149.874)" fill="white" fill-opacity="0.15"/>
<ellipse cx="10.5231" cy="10.2325" rx="10.5231" ry="10.2325" transform="matrix(-0.805252 -0.592933 -0.5385 0.842625 925.091 145.574)" fill="white" fill-opacity="0.15"/>
<ellipse cx="10.5231" cy="10.2325" rx="10.5231" ry="10.2325" transform="matrix(-0.805252 -0.592933 -0.5385 0.842625 884.504 97.938)" fill="white" fill-opacity="0.15"/>
<ellipse cx="10.5231" cy="10.2325" rx="10.5231" ry="10.2325" transform="matrix(-0.805252 -0.592933 -0.5385 0.842625 879.258 53.5005)" fill="white" fill-opacity="0.15"/>
<ellipse cx="10.5231" cy="10.2325" rx="10.5231" ry="10.2325" transform="matrix(-0.805252 -0.592933 -0.5385 0.842625 876.463 539.954)" fill="white" fill-opacity="0.15"/>
<ellipse cx="10.5231" cy="10.2325" rx="10.5231" ry="10.2325" transform="matrix(-0.805252 -0.592933 -0.5385 0.842625 855.303 607.704)" fill="white" fill-opacity="0.15"/>
<ellipse cx="10.5231" cy="10.2325" rx="10.5231" ry="10.2325" transform="matrix(-0.805252 -0.592933 -0.5385 0.842625 857.019 482.174)" fill="white" fill-opacity="0.15"/>
<ellipse cx="10.5231" cy="10.2325" rx="10.5231" ry="10.2325" transform="matrix(-0.805252 -0.592933 -0.5385 0.842625 942.219 329.359)" fill="white" fill-opacity="0.15"/>
<ellipse cx="10.5231" cy="10.2325" rx="10.5231" ry="10.2325" transform="matrix(-0.805252 -0.592933 -0.5385 0.842625 948.683 202.252)" fill="white" fill-opacity="0.15"/>
</g>
<g filter="url(#filter8_f_415_31)">
<ellipse cx="12.071" cy="15.2368" rx="12.071" ry="15.2368" transform="matrix(-0.994179 -0.107737 -0.640158 0.768243 1161.41 402.517)" fill="white" fill-opacity="0.15"/>
<ellipse cx="12.071" cy="15.2368" rx="12.071" ry="15.2368" transform="matrix(-0.994179 -0.107737 -0.640158 0.768243 1188.93 452.72)" fill="white" fill-opacity="0.15"/>
<ellipse cx="12.071" cy="15.2368" rx="12.071" ry="15.2368" transform="matrix(-0.994179 -0.107737 -0.640158 0.768243 1134.6 533.618)" fill="white" fill-opacity="0.15"/>
<ellipse cx="12.071" cy="15.2368" rx="12.071" ry="15.2368" transform="matrix(-0.994179 -0.107737 -0.640158 0.768243 1139.98 626.092)" fill="white" fill-opacity="0.15"/>
<ellipse cx="12.071" cy="15.2368" rx="12.071" ry="15.2368" transform="matrix(-0.994179 -0.107737 -0.640158 0.768243 1190.7 565.222)" fill="white" fill-opacity="0.15"/>
<ellipse cx="12.071" cy="15.2368" rx="12.071" ry="15.2368" transform="matrix(-0.994179 -0.107737 -0.640158 0.768243 1189.11 337.876)" fill="white" fill-opacity="0.15"/>
<ellipse cx="12.071" cy="15.2368" rx="12.071" ry="15.2368" transform="matrix(-0.994179 -0.107737 -0.640158 0.768243 1168.12 284.552)" fill="white" fill-opacity="0.15"/>
<ellipse cx="12.071" cy="15.2368" rx="12.071" ry="15.2368" transform="matrix(-0.994179 -0.107737 -0.640158 0.768243 1245.21 369.48)" fill="white" fill-opacity="0.15"/>
<ellipse cx="12.071" cy="15.2368" rx="12.071" ry="15.2368" transform="matrix(-0.994179 -0.107737 -0.640158 0.768243 1219.14 239.029)" fill="white" fill-opacity="0.15"/>
<ellipse cx="12.071" cy="15.2368" rx="12.071" ry="15.2368" transform="matrix(-0.994179 -0.107737 -0.640158 0.768243 1184.79 197.021)" fill="white" fill-opacity="0.15"/>
<ellipse cx="12.071" cy="15.2368" rx="12.071" ry="15.2368" transform="matrix(-0.994179 -0.107737 -0.640158 0.768243 1282.15 194.808)" fill="white" fill-opacity="0.15"/>
<ellipse cx="12.071" cy="15.2368" rx="12.071" ry="15.2368" transform="matrix(-0.994179 -0.107737 -0.640158 0.768243 1229.66 143.174)" fill="white" fill-opacity="0.15"/>
<ellipse cx="12.071" cy="15.2368" rx="12.071" ry="15.2368" transform="matrix(-0.994179 -0.107737 -0.640158 0.768243 1179.26 137.713)" fill="white" fill-opacity="0.15"/>
<ellipse cx="12.071" cy="15.2368" rx="12.071" ry="15.2368" transform="matrix(-0.994179 -0.107737 -0.640158 0.768243 1273.7 98.1731)" fill="white" fill-opacity="0.15"/>
<ellipse cx="12.071" cy="15.2368" rx="12.071" ry="15.2368" transform="matrix(-0.994179 -0.107737 -0.640158 0.768243 1218.95 74.3728)" fill="white" fill-opacity="0.15"/>
<ellipse cx="12.071" cy="15.2368" rx="12.071" ry="15.2368" transform="matrix(-0.994179 -0.107737 -0.640158 0.768243 1217.77 33.4031)" fill="white" fill-opacity="0.15"/>
<ellipse cx="12.071" cy="15.2368" rx="12.071" ry="15.2368" transform="matrix(-0.994179 -0.107737 -0.640158 0.768243 1138.67 516.546)" fill="white" fill-opacity="0.15"/>
<ellipse cx="12.071" cy="15.2368" rx="12.071" ry="15.2368" transform="matrix(-0.994179 -0.107737 -0.640158 0.768243 1095.88 595.787)" fill="white" fill-opacity="0.15"/>
<ellipse cx="12.071" cy="15.2368" rx="12.071" ry="15.2368" transform="matrix(-0.994179 -0.107737 -0.640158 0.768243 1117.82 470.539)" fill="white" fill-opacity="0.15"/>
<ellipse cx="12.071" cy="15.2368" rx="12.071" ry="15.2368" transform="matrix(-0.994179 -0.107737 -0.640158 0.768243 1271.63 270.244)" fill="white" fill-opacity="0.15"/>
<ellipse cx="12.071" cy="15.2368" rx="12.071" ry="15.2368" transform="matrix(-0.994179 -0.107737 -0.640158 0.768243 1301.07 140.702)" fill="white" fill-opacity="0.15"/>
</g>
<g filter="url(#filter9_f_415_31)">
<ellipse cx="12.5232" cy="15.4511" rx="12.5232" ry="15.4511" transform="matrix(0.978348 0.206965 0.66722 -0.744861 1505.45 317.666)" fill="white" fill-opacity="0.15"/>
<ellipse cx="12.5232" cy="15.4511" rx="12.5232" ry="15.4511" transform="matrix(0.978348 0.206965 0.66722 -0.744861 1478.66 261.347)" fill="white" fill-opacity="0.15"/>
<ellipse cx="12.5232" cy="15.4511" rx="12.5232" ry="15.4511" transform="matrix(0.978348 0.206965 0.66722 -0.744861 1536.51 180.494)" fill="white" fill-opacity="0.15"/>
<ellipse cx="12.5232" cy="15.4511" rx="12.5232" ry="15.4511" transform="matrix(0.978348 0.206965 0.66722 -0.744861 1533.55 81.301)" fill="white" fill-opacity="0.15"/>
<ellipse cx="12.5232" cy="15.4511" rx="12.5232" ry="15.4511" transform="matrix(0.978348 0.206965 0.66722 -0.744861 1479.94 141.148)" fill="white" fill-opacity="0.15"/>
<ellipse cx="12.5232" cy="15.4511" rx="12.5232" ry="15.4511" transform="matrix(0.978348 0.206965 0.66722 -0.744861 1475.32 383.848)" fill="white" fill-opacity="0.15"/>
<ellipse cx="12.5232" cy="15.4511" rx="12.5232" ry="15.4511" transform="matrix(0.978348 0.206965 0.66722 -0.744861 1495.34 442.842)" fill="white" fill-opacity="0.15"/>
<ellipse cx="12.5232" cy="15.4511" rx="12.5232" ry="15.4511" transform="matrix(0.978348 0.206965 0.66722 -0.744861 1418.75 344.501)" fill="white" fill-opacity="0.15"/>
<ellipse cx="12.5232" cy="15.4511" rx="12.5232" ry="15.4511" transform="matrix(0.978348 0.206965 0.66722 -0.744861 1441.85 486.286)" fill="white" fill-opacity="0.15"/>
<ellipse cx="12.5232" cy="15.4511" rx="12.5232" ry="15.4511" transform="matrix(0.978348 0.206965 0.66722 -0.744861 1475.86 534.549)" fill="white" fill-opacity="0.15"/>
<ellipse cx="12.5232" cy="15.4511" rx="12.5232" ry="15.4511" transform="matrix(0.978348 0.206965 0.66722 -0.744861 1376.11 527.138)" fill="white" fill-opacity="0.15"/>
<ellipse cx="12.5232" cy="15.4511" rx="12.5232" ry="15.4511" transform="matrix(0.978348 0.206965 0.66722 -0.744861 1428.44 587.49)" fill="white" fill-opacity="0.15"/>
<ellipse cx="12.5232" cy="15.4511" rx="12.5232" ry="15.4511" transform="matrix(0.978348 0.206965 0.66722 -0.744861 1479.9 598.376)" fill="white" fill-opacity="0.15"/>
<ellipse cx="12.5232" cy="15.4511" rx="12.5232" ry="15.4511" transform="matrix(0.978348 0.206965 0.66722 -0.744861 1382.1 631.079)" fill="white" fill-opacity="0.15"/>
<ellipse cx="12.5232" cy="15.4511" rx="12.5232" ry="15.4511" transform="matrix(0.978348 0.206965 0.66722 -0.744861 1437.51 661.965)" fill="white" fill-opacity="0.15"/>
<ellipse cx="12.5232" cy="15.4511" rx="12.5232" ry="15.4511" transform="matrix(0.978348 0.206965 0.66722 -0.744861 1437.6 705.792)" fill="white" fill-opacity="0.15"/>
<ellipse cx="12.5232" cy="15.4511" rx="12.5232" ry="15.4511" transform="matrix(0.978348 0.206965 0.66722 -0.744861 1531.88 198.3)" fill="white" fill-opacity="0.15"/>
<ellipse cx="12.5232" cy="15.4511" rx="12.5232" ry="15.4511" transform="matrix(0.978348 0.206965 0.66722 -0.744861 1577.87 118.056)" fill="white" fill-opacity="0.15"/>
<ellipse cx="12.5232" cy="15.4511" rx="12.5232" ry="15.4511" transform="matrix(0.978348 0.206965 0.66722 -0.744861 1551.97 249.474)" fill="white" fill-opacity="0.15"/>
<ellipse cx="12.5232" cy="15.4511" rx="12.5232" ry="15.4511" transform="matrix(0.978348 0.206965 0.66722 -0.744861 1388.96 447.717)" fill="white" fill-opacity="0.15"/>
<ellipse cx="12.5232" cy="15.4511" rx="12.5232" ry="15.4511" transform="matrix(0.978348 0.206965 0.66722 -0.744861 1355.25 582.961)" fill="white" fill-opacity="0.15"/>
</g>
<defs>
<filter id="filter0_f_415_31" x="533.912" y="1297.91" width="319.8" height="709.776" filterUnits="userSpaceOnUse" color-interpolation-filters="sRGB">
<feFlood flood-opacity="0" result="BackgroundImageFix"/>
<feBlend mode="normal" in="SourceGraphic" in2="BackgroundImageFix" result="shape"/>
<feGaussianBlur stdDeviation="7" result="effect1_foregroundBlur_415_31"/>
</filter>
<filter id="filter1_f_415_31" x="583.32" y="1103.68" width="238.051" height="938.307" filterUnits="userSpaceOnUse" color-interpolation-filters="sRGB">
<feFlood flood-opacity="0" result="BackgroundImageFix"/>
<feBlend mode="normal" in="SourceGraphic" in2="BackgroundImageFix" result="shape"/>
<feGaussianBlur stdDeviation="11.5" result="effect1_foregroundBlur_415_31"/>
</filter>
<filter id="filter2_f_415_31" x="624.123" y="264.14" width="220.051" height="920.307" filterUnits="userSpaceOnUse" color-interpolation-filters="sRGB">
<feFlood flood-opacity="0" result="BackgroundImageFix"/>
<feBlend mode="normal" in="SourceGraphic" in2="BackgroundImageFix" result="shape"/>
<feGaussianBlur stdDeviation="7" result="effect1_foregroundBlur_415_31"/>
</filter>
<filter id="filter3_f_415_31" x="293.977" y="482.779" width="328.049" height="1422.1" filterUnits="userSpaceOnUse" color-interpolation-filters="sRGB">
<feFlood flood-opacity="0" result="BackgroundImageFix"/>
<feBlend mode="normal" in="SourceGraphic" in2="BackgroundImageFix" result="shape"/>
<feGaussianBlur stdDeviation="7" result="effect1_foregroundBlur_415_31"/>
</filter>
<filter id="filter4_f_415_31" x="940.835" y="441.571" width="578.676" height="1587.4" filterUnits="userSpaceOnUse" color-interpolation-filters="sRGB">
<feFlood flood-opacity="0" result="BackgroundImageFix"/>
<feBlend mode="normal" in="SourceGraphic" in2="BackgroundImageFix" result="shape"/>
<feGaussianBlur stdDeviation="7.5" result="effect1_foregroundBlur_415_31"/>
</filter>
<filter id="filter5_f_415_31" x="1153.42" y="647.768" width="142.846" height="650.545" filterUnits="userSpaceOnUse" color-interpolation-filters="sRGB">
<feFlood flood-opacity="0" result="BackgroundImageFix"/>
<feBlend mode="normal" in="SourceGraphic" in2="BackgroundImageFix" result="shape"/>
<feGaussianBlur stdDeviation="7" result="effect1_foregroundBlur_415_31"/>
</filter>
<filter id="filter6_f_415_31" x="289.304" y="0.670166" width="142.846" height="650.545" filterUnits="userSpaceOnUse" color-interpolation-filters="sRGB">
<feFlood flood-opacity="0" result="BackgroundImageFix"/>
<feBlend mode="normal" in="SourceGraphic" in2="BackgroundImageFix" result="shape"/>
<feGaussianBlur stdDeviation="7" result="effect1_foregroundBlur_415_31"/>
</filter>
<filter id="filter7_f_415_31" x="817.21" y="31.2395" width="141.598" height="653.805" filterUnits="userSpaceOnUse" color-interpolation-filters="sRGB">
<feFlood flood-opacity="0" result="BackgroundImageFix"/>
<feBlend mode="normal" in="SourceGraphic" in2="BackgroundImageFix" result="shape"/>
<feGaussianBlur stdDeviation="7" result="effect1_foregroundBlur_415_31"/>
</filter>
<filter id="filter8_f_415_31" x="1044.66" y="18.0295" width="264.119" height="644.246" filterUnits="userSpaceOnUse" color-interpolation-filters="sRGB">
<feFlood flood-opacity="0" result="BackgroundImageFix"/>
<feBlend mode="normal" in="SourceGraphic" in2="BackgroundImageFix" result="shape"/>
<feGaussianBlur stdDeviation="7" result="effect1_foregroundBlur_415_31"/>
</filter>
<filter id="filter9_f_415_31" x="1344.8" y="43.5842" width="288.64" height="682.09" filterUnits="userSpaceOnUse" color-interpolation-filters="sRGB">
<feFlood flood-opacity="0" result="BackgroundImageFix"/>
<feBlend mode="normal" in="SourceGraphic" in2="BackgroundImageFix" result="shape"/>
<feGaussianBlur stdDeviation="8.5" result="effect1_foregroundBlur_415_31"/>
</filter>
</defs>
</svg>
