<svg width="953" height="1637" viewBox="0 0 953 1637" fill="none" xmlns="http://www.w3.org/2000/svg">
<g filter="url(#filter0_ddf_405_29)">
<path d="M864.593 275.035C713.233 -178.257 -363.231 -233.006 146.375 1626.41L440.541 1626.41C305.141 1433.83 132.955 684.231 198.37 482.159C263.784 280.087 393.216 91.728 621.731 184.267C793.683 253.901 794.547 417.195 841.156 610.207C877.535 760.856 862.66 1020.6 873.392 1177.98L875.314 1181.06L877.996 1183.45L881.489 1184.43L885.691 1185.46L889.286 1184.97L892.881 1184.49L895.87 1182.49L898.201 1179.71C940.527 954.701 985.776 637.952 864.593 275.035Z" fill="black" fill-opacity="0.8" shape-rendering="crispEdges"/>
</g>
<defs>
<filter id="filter0_ddf_405_29" x="0.442871" y="0.420921" width="952.347" height="1635.99" filterUnits="userSpaceOnUse" color-interpolation-filters="sRGB">
<feFlood flood-opacity="0" result="BackgroundImageFix"/>
<feColorMatrix in="SourceAlpha" type="matrix" values="0 0 0 0 0 0 0 0 0 0 0 0 0 0 0 0 0 0 127 0" result="hardAlpha"/>
<feOffset dy="4"/>
<feGaussianBlur stdDeviation="2"/>
<feComposite in2="hardAlpha" operator="out"/>
<feColorMatrix type="matrix" values="0 0 0 0 0 0 0 0 0 0 0 0 0 0 0 0 0 0 0.25 0"/>
<feBlend mode="normal" in2="BackgroundImageFix" result="effect1_dropShadow_405_29"/>
<feColorMatrix in="SourceAlpha" type="matrix" values="0 0 0 0 0 0 0 0 0 0 0 0 0 0 0 0 0 0 127 0" result="hardAlpha"/>
<feOffset dy="4"/>
<feGaussianBlur stdDeviation="2"/>
<feComposite in2="hardAlpha" operator="out"/>
<feColorMatrix type="matrix" values="0 0 0 0 0 0 0 0 0 0 0 0 0 0 0 0 0 0 0.25 0"/>
<feBlend mode="normal" in2="effect1_dropShadow_405_29" result="effect2_dropShadow_405_29"/>
<feBlend mode="normal" in="SourceGraphic" in2="effect2_dropShadow_405_29" result="shape"/>
<feGaussianBlur stdDeviation="5" result="effect3_foregroundBlur_405_29"/>
</filter>
</defs>
</svg>
